<svg xmlns="http://www.w3.org/2000/svg" fill="none" viewBox="0 0 48 48"><g clip-path="url(#clip0_17299_47329)"><path fill="#FFC907" d="M9.515 36.075l-7.134-5.611c-.39-.294-.517-.811-.283-1.15 1.143-1.656 3.346-2.221 5.51-1.415l6.452 3.66-4.545 4.516zM11.91 38.47l5.626 7.149c.293.39.811.517 1.15.283l.425-.293c1.4-.968 1.88-2.83 1.197-4.661L16.44 33.94l-4.53 4.53z"/><path fill="#DEB10F" d="M9.935 29.218l-4.037 4.01 3.62 2.848 4.546-4.516-4.13-2.342z"/><path fill="#C3D3DB" d="M11.451 14.098a2.468 2.468 0 0 1-.166-3.305 57.585 57.585 0 0 1 3.44-3.83c1.176-1.177 1.28-1.037 2.537-1.807a.47.47 0 0 1 .578.067l2.487 2.487a.47.47 0 0 1 .067.578c-.77 1.257-.63 1.36-1.807 2.537-.86.86-2.425 2.295-3.83 3.44-.982.8-2.41.73-3.306-.167zM33.904 36.552a2.468 2.468 0 0 1-.166-3.306 57.606 57.606 0 0 1 3.44-3.83c1.177-1.177 1.28-1.036 2.537-1.807a.47.47 0 0 1 .578.067l2.487 2.487a.47.47 0 0 1 .067.578c-.77 1.258-.63 1.36-1.807 2.538-.86.86-2.425 2.294-3.83 3.44-.982.8-2.41.729-3.306-.167z"/><path fill="#FFC907" d="M22.684 22.579l8.802-8.802L4.22 5.21c-.562-.143-1.12-.007-1.492.365L.425 7.878c-.772.772-.44 2.186.649 2.77l21.61 11.93z"/><path fill="#DEB10F" d="M25.323 11.842l-7.858 7.857 5.217 2.88 8.801-8.802-6.16-1.935z"/><path fill="#FFC907" d="M25.424 25.32l8.802-8.802 8.567 27.266c.143.561.006 1.12-.365 1.491l-2.304 2.304c-.771.771-2.185.44-2.77-.65l-11.93-21.61z"/><path fill="#E0F3FC" d="M42.037 12.818L27.25 27.605a80.156 80.156 0 0 1-7.88 6.914l-7.036 5.397c-1.629 1.25-3.566 1.4-4.607.36-1.041-1.042-.89-2.979.36-4.608l5.396-7.035a80.141 80.141 0 0 1 6.915-7.88L35.184 5.964c2.02-2.021 4.343-3.705 6.795-4.862 2.112-.995 4.357-1.62 5.448-.529 1.09 1.09.467 3.336-.53 5.448-1.156 2.453-2.84 4.774-4.861 6.796z"/><path fill="#C3D3DB" d="M47.425.575C47.04.191 46.514.02 45.9.003c.044 1.136-.448 2.576-1.1 3.96-1.157 2.452-2.841 4.774-4.863 6.795L25.151 25.545a80.127 80.127 0 0 1-7.881 6.914l-7.036 5.397C9.198 38.65 8.038 39 7.063 38.882c.073.541.291 1.024.66 1.394 1.042 1.04 2.98.89 4.608-.36l7.035-5.397a80.143 80.143 0 0 0 7.88-6.914l14.788-14.787c2.021-2.021 3.706-4.343 4.862-6.795.995-2.112 1.62-4.357.529-5.448z"/><path fill="#51C4F5" d="M43.263 9.986l-.505.505c-.47.469-5.715-4.777-5.246-5.246l.505-.505c.318-.318.785-.418 1.166-.25a8.643 8.643 0 0 1 4.33 4.33c.168.38.068.848-.25 1.166z"/><path fill="#DEB10F" d="M9.324 39.38a.703.703 0 0 1-.497-1.2l6.14-6.14a.703.703 0 1 1 .995.994l-6.14 6.14a.701.701 0 0 1-.498.206z"/></g><defs><clipPath id="clip0_17299_47329"><path fill="#fff" d="M0 0h48v48H0z"/></clipPath></defs></svg>